<svg xmlns="http://www.w3.org/2000/svg" width="1293" height="476" fill="none" style=""><rect id="backgroundrect" width="100%" height="100%" x="0" y="0" fill="none" stroke="none"/>



<g class="currentLayer" style=""><title>Layer 1</title><path d="M233.609 183.678L168.562 340H121.001L50.3589 191.022L50.7086 298.734L79.0354 340H5.24571L32.8731 298.734V154.651L5.59543 95.2H84.2811L173.458 282.997L251.095 95.2H338.174L307.049 136.466V298.734L339.573 340H206.331L233.609 298.734V183.678ZM329.196 295.586C329.196 286.96 330.828 279.733 334.092 273.904C337.589 268.075 342.019 263.179 347.381 259.216C352.976 255.019 359.155 251.639 365.916 249.074C372.677 246.277 379.555 243.712 386.549 241.381C392.378 239.282 397.973 237.301 403.335 235.435C408.931 233.337 413.827 230.889 418.023 228.091C422.22 225.294 425.484 222.03 427.815 218.299C430.38 214.336 431.662 209.673 431.662 204.311C431.662 198.949 430.263 193.936 427.466 189.273C424.668 184.61 420.238 182.279 414.176 182.279H413.127L355.075 222.496L330.245 159.547H503.004L497.758 176.683V310.274L519.79 340H433.411V317.269C426.416 325.429 418.256 331.957 408.931 336.853C399.838 341.749 389.813 344.197 378.855 344.197C371.395 344.197 364.634 343.031 358.572 340.699C352.51 338.368 347.264 335.104 342.835 330.907C338.638 326.478 335.258 321.349 332.693 315.52C330.362 309.458 329.196 302.814 329.196 295.586ZM433.76 237.184C431.895 241.381 428.981 244.994 425.018 248.025C421.287 251.056 417.324 253.97 413.127 256.768C407.299 260.498 401.936 264.578 397.04 269.008C392.378 273.205 390.046 279.266 390.046 287.193C390.046 293.954 392.028 299.083 395.991 302.581C399.955 305.845 405.084 307.477 411.379 307.477C419.306 307.477 426.766 305.262 433.76 300.832V237.184ZM734.233 159.897L649.952 216.201L705.207 310.274L733.884 340H649.253L596.446 250.123L593.998 251.872V310.274L615.68 340H509.367L530 310.274V124.576L510.066 95.5497L593.998 77.7143V240.681L645.756 206.409L619.527 159.897H734.233ZM782.412 259.566C784.277 276.119 789.406 289.175 797.799 298.734C806.193 308.293 816.684 313.072 829.274 313.072C838.599 313.072 847.925 310.391 857.251 305.029C866.81 299.666 875.669 291.973 883.829 281.947L894.67 288.942C888.609 298.734 882.314 307.127 875.786 314.121C869.491 321.115 862.846 326.827 855.852 331.257C848.858 335.687 841.397 338.951 833.47 341.049C825.543 343.147 816.917 344.197 807.591 344.197C793.836 344.197 781.246 342.098 769.822 337.902C758.631 333.472 749.073 327.294 741.146 319.367C733.219 311.207 727.041 301.415 722.611 289.991C718.181 278.334 715.966 265.278 715.966 250.823C715.966 236.135 718.181 222.846 722.611 210.955C727.041 198.832 733.452 188.574 741.845 180.181C750.238 171.554 760.497 165.026 772.62 160.597C784.743 155.934 798.499 153.602 813.886 153.602C830.673 153.602 844.778 156.283 856.202 161.646C867.626 167.008 876.485 174.469 882.78 184.027C889.308 193.586 893.505 204.894 895.37 217.95C897.235 230.773 896.885 244.645 894.321 259.566H782.412ZM814.586 178.782C804.794 178.782 796.983 184.494 791.155 195.918C785.326 207.109 782.179 222.379 781.713 241.73H838.017C838.483 237.067 838.716 231.122 838.716 223.895C838.716 216.667 838.017 209.79 836.618 203.262C835.219 196.501 832.771 190.789 829.274 186.126C826.01 181.23 821.114 178.782 814.586 178.782ZM975.498 174.935C993.217 163.278 1012.33 157.449 1032.85 157.449C1056.17 157.449 1074.35 164.91 1087.41 179.831C1100.46 194.752 1106.99 215.269 1106.99 241.381C1106.99 256.535 1104.66 270.407 1100 282.997C1095.57 295.353 1089.16 305.961 1080.76 314.821C1072.6 323.68 1062.81 330.558 1051.39 335.454C1039.96 340.35 1027.37 342.798 1013.62 342.798C997.996 342.798 983.891 339.65 971.301 333.355L911.5 343.147V124.576L891.567 95.5497L975.498 77.7143V174.935ZM992.634 317.269C1008.02 316.802 1019.8 310.974 1027.96 299.783C1036.35 288.592 1040.54 272.389 1040.54 251.173C1040.54 232.288 1037.28 217.483 1030.75 206.759C1024.46 196.034 1015.72 190.672 1004.52 190.672C1000.33 190.672 995.781 191.605 990.885 193.47C985.989 195.102 980.86 197.783 975.498 201.513V315.17C980.627 316.569 985.989 317.269 991.585 317.269H992.634ZM1101.79 295.586C1101.79 286.96 1103.42 279.733 1106.69 273.904C1110.18 268.075 1114.61 263.179 1119.98 259.216C1125.57 255.019 1131.75 251.639 1138.51 249.074C1145.27 246.277 1152.15 243.712 1159.14 241.381C1164.97 239.282 1170.57 237.301 1175.93 235.435C1181.53 233.337 1186.42 230.889 1190.62 228.091C1194.82 225.294 1198.08 222.03 1200.41 218.299C1202.98 214.336 1204.26 209.673 1204.26 204.311C1204.26 198.949 1202.86 193.936 1200.06 189.273C1197.26 184.61 1192.83 182.279 1186.77 182.279H1185.72L1127.67 222.496L1102.84 159.547H1275.6L1270.35 176.683V310.274L1292.39 340H1206.01V317.269C1199.01 325.429 1190.85 331.957 1181.53 336.853C1172.43 341.749 1162.41 344.197 1151.45 344.197C1143.99 344.197 1137.23 343.031 1131.17 340.699C1125.11 338.368 1119.86 335.104 1115.43 330.907C1111.23 326.478 1107.85 321.349 1105.29 315.52C1102.96 309.458 1101.79 302.814 1101.79 295.586ZM1206.36 237.184C1204.49 241.381 1201.58 244.994 1197.61 248.025C1193.88 251.056 1189.92 253.97 1185.72 256.768C1179.89 260.498 1174.53 264.578 1169.64 269.008C1164.97 273.205 1162.64 279.266 1162.64 287.193C1162.64 293.954 1164.62 299.083 1168.59 302.581C1172.55 305.845 1177.68 307.477 1183.97 307.477C1191.9 307.477 1199.36 305.262 1206.36 300.832V237.184Z" fill="#ffffff" id="svg_1" class="" fill-opacity="1"/><path d="M1202.14 63.1429L1168.14 105.643L1204.57 139.643L1238.57 99.5714L1202.14 63.1429Z" fill="#ffffff" id="svg_2" class="" fill-opacity="1"/><path d="M420.86763768720624,63.1429 L386.86763768720624,105.643 L423.2956376872063,139.643 L457.2956376872063,99.5714 L420.86763768720624,63.1429 z" fill="#ffffff" id="svg_3" class="" fill-opacity="1"/></g></svg>